# xmcd
#
# Track frame offsets: 
#        150
#        19162
#        32712
#        63814
#        84052
#        105614
#        117857
#        133892
#        183492
#
# Disc length: 2719 seconds
#
# Revision: 0
# Processed by: cddbd v1.5.1PL0 Copyright (c) Steve Scherf et al.
# Submitted via: ExactAudioCopy v0.95b2
#
DISCID=6c0a9d09
DTITLE=Чиж and Co - Эрогенная зона
DYEAR=1996
DGENRE=Blues
TTITLE0=Фантом
TTITLE1=Динамовский вальс
TTITLE2=Снова поезд
TTITLE3=Эрогенная зона
TTITLE4=Russo matroso
TTITLE5=То засада, то измена
TTITLE6=Прекрасное воскресенье
TTITLE7=Вечная молодость
TTITLE8=Лирическая
EXTD=
EXTT0=
EXTT1=
EXTT2=
EXTT3=
EXTT4=
EXTT5=
EXTT6=
EXTT7=
EXTT8=
PLAYORDER=
